<svg width="406" height="79" viewBox="0 0 406 79" fill="none" xmlns="http://www.w3.org/2000/svg">
<path d="M152.032 51L144.704 28.6H150.08L156.448 48.44H153.76L160.416 28.6H165.216L171.616 48.44H169.024L175.552 28.6H180.512L173.184 51H167.616L161.952 33.592H163.424L157.6 51H152.032ZM193.987 33.528C195.352 33.528 196.568 33.8053 197.635 34.36C198.723 34.8933 199.576 35.7253 200.195 36.856C200.813 37.9653 201.123 39.3947 201.123 41.144V51H196.131V41.912C196.131 40.5253 195.821 39.5013 195.203 38.84C194.605 38.1787 193.752 37.848 192.643 37.848C191.853 37.848 191.139 38.0187 190.499 38.36C189.88 38.68 189.389 39.1813 189.027 39.864C188.685 40.5467 188.515 41.4213 188.515 42.488V51H183.523V27.256H188.515V38.552L187.395 37.112C188.013 35.96 188.899 35.0747 190.051 34.456C191.203 33.8373 192.515 33.528 193.987 33.528ZM214.317 51.256C212.354 51.256 210.626 50.872 209.133 50.104C207.661 49.336 206.519 48.2907 205.709 46.968C204.898 45.624 204.493 44.0987 204.493 42.392C204.493 40.664 204.887 39.1387 205.677 37.816C206.487 36.472 207.586 35.4267 208.973 34.68C210.359 33.912 211.927 33.528 213.677 33.528C215.362 33.528 216.877 33.8907 218.221 34.616C219.586 35.32 220.663 36.344 221.453 37.688C222.242 39.0107 222.637 40.6 222.637 42.456C222.637 42.648 222.626 42.872 222.605 43.128C222.583 43.3627 222.562 43.5867 222.541 43.8H208.557V40.888H219.917L217.997 41.752C217.997 40.856 217.815 40.0773 217.453 39.416C217.09 38.7547 216.589 38.2427 215.949 37.88C215.309 37.496 214.562 37.304 213.709 37.304C212.855 37.304 212.098 37.496 211.437 37.88C210.797 38.2427 210.295 38.7653 209.933 39.448C209.57 40.1093 209.389 40.8987 209.389 41.816V42.584C209.389 43.5227 209.591 44.3547 209.997 45.08C210.423 45.784 211.01 46.328 211.757 46.712C212.525 47.0747 213.421 47.256 214.445 47.256C215.362 47.256 216.162 47.1173 216.845 46.84C217.549 46.5627 218.189 46.1467 218.765 45.592L221.421 48.472C220.631 49.368 219.639 50.0613 218.445 50.552C217.25 51.0213 215.874 51.256 214.317 51.256ZM234.504 51.256C232.542 51.256 230.814 50.872 229.32 50.104C227.848 49.336 226.707 48.2907 225.896 46.968C225.086 45.624 224.68 44.0987 224.68 42.392C224.68 40.664 225.075 39.1387 225.864 37.816C226.675 36.472 227.774 35.4267 229.16 34.68C230.547 33.912 232.115 33.528 233.864 33.528C235.55 33.528 237.064 33.8907 238.408 34.616C239.774 35.32 240.851 36.344 241.64 37.688C242.43 39.0107 242.824 40.6 242.824 42.456C242.824 42.648 242.814 42.872 242.792 43.128C242.771 43.3627 242.75 43.5867 242.728 43.8H228.744V40.888H240.104L238.184 41.752C238.184 40.856 238.003 40.0773 237.64 39.416C237.278 38.7547 236.776 38.2427 236.136 37.88C235.496 37.496 234.75 37.304 233.896 37.304C233.043 37.304 232.286 37.496 231.624 37.88C230.984 38.2427 230.483 38.7653 230.12 39.448C229.758 40.1093 229.576 40.8987 229.576 41.816V42.584C229.576 43.5227 229.779 44.3547 230.184 45.08C230.611 45.784 231.198 46.328 231.944 46.712C232.712 47.0747 233.608 47.256 234.632 47.256C235.55 47.256 236.35 47.1173 237.032 46.84C237.736 46.5627 238.376 46.1467 238.952 45.592L241.608 48.472C240.819 49.368 239.827 50.0613 238.632 50.552C237.438 51.0213 236.062 51.256 234.504 51.256ZM246.148 51V27.256H251.14V51H246.148ZM261.565 51.256C260.093 51.256 258.674 51.0853 257.309 50.744C255.965 50.3813 254.898 49.9333 254.109 49.4L255.773 45.816C256.562 46.3067 257.49 46.712 258.557 47.032C259.645 47.3307 260.711 47.48 261.757 47.48C262.909 47.48 263.719 47.3413 264.189 47.064C264.679 46.7867 264.925 46.4027 264.925 45.912C264.925 45.5067 264.733 45.208 264.349 45.016C263.986 44.8027 263.495 44.6427 262.877 44.536C262.258 44.4293 261.575 44.3227 260.829 44.216C260.103 44.1093 259.367 43.9707 258.621 43.8C257.874 43.608 257.191 43.3307 256.573 42.968C255.954 42.6053 255.453 42.1147 255.069 41.496C254.706 40.8773 254.525 40.0773 254.525 39.096C254.525 38.008 254.834 37.048 255.453 36.216C256.093 35.384 257.01 34.7333 258.205 34.264C259.399 33.7733 260.829 33.528 262.493 33.528C263.666 33.528 264.861 33.656 266.077 33.912C267.293 34.168 268.306 34.5413 269.117 35.032L267.453 38.584C266.621 38.0933 265.778 37.7627 264.925 37.592C264.093 37.4 263.282 37.304 262.493 37.304C261.383 37.304 260.573 37.4533 260.061 37.752C259.549 38.0507 259.293 38.4347 259.293 38.904C259.293 39.3307 259.474 39.6507 259.837 39.864C260.221 40.0773 260.722 40.248 261.341 40.376C261.959 40.504 262.631 40.6213 263.357 40.728C264.103 40.8133 264.85 40.952 265.597 41.144C266.343 41.336 267.015 41.6133 267.613 41.976C268.231 42.3173 268.733 42.7973 269.117 43.416C269.501 44.0133 269.693 44.8027 269.693 45.784C269.693 46.8507 269.373 47.8 268.733 48.632C268.093 49.4427 267.165 50.0827 265.949 50.552C264.754 51.0213 263.293 51.256 261.565 51.256ZM332.97 51.384C331.242 51.384 329.631 51.1067 328.138 50.552C326.666 49.976 325.386 49.1653 324.298 48.12C323.21 47.0747 322.356 45.848 321.738 44.44C321.14 43.032 320.842 41.4853 320.842 39.8C320.842 38.1147 321.14 36.568 321.738 35.16C322.356 33.752 323.21 32.5253 324.298 31.48C325.407 30.4347 326.698 29.6347 328.17 29.08C329.642 28.504 331.252 28.216 333.002 28.216C334.943 28.216 336.692 28.5573 338.25 29.24C339.828 29.9013 341.151 30.8827 342.218 32.184L338.89 35.256C338.122 34.3813 337.268 33.7307 336.33 33.304C335.391 32.856 334.367 32.632 333.258 32.632C332.212 32.632 331.252 32.8027 330.378 33.144C329.503 33.4853 328.746 33.976 328.106 34.616C327.466 35.256 326.964 36.0133 326.602 36.888C326.26 37.7627 326.09 38.7333 326.09 39.8C326.09 40.8667 326.26 41.8373 326.602 42.712C326.964 43.5867 327.466 44.344 328.106 44.984C328.746 45.624 329.503 46.1147 330.378 46.456C331.252 46.7973 332.212 46.968 333.258 46.968C334.367 46.968 335.391 46.7547 336.33 46.328C337.268 45.88 338.122 45.208 338.89 44.312L342.218 47.384C341.151 48.6853 339.828 49.6773 338.25 50.36C336.692 51.0427 334.932 51.384 332.97 51.384ZM355.833 51V47.64L355.513 46.904V40.888C355.513 39.8213 355.182 38.9893 354.521 38.392C353.881 37.7947 352.889 37.496 351.545 37.496C350.627 37.496 349.721 37.6453 348.825 37.944C347.95 38.2213 347.203 38.6053 346.585 39.096L344.793 35.608C345.731 34.9467 346.862 34.4347 348.185 34.072C349.507 33.7093 350.851 33.528 352.217 33.528C354.841 33.528 356.878 34.1467 358.329 35.384C359.779 36.6213 360.505 38.552 360.505 41.176V51H355.833ZM350.585 51.256C349.241 51.256 348.089 51.032 347.129 50.584C346.169 50.1147 345.433 49.4853 344.921 48.696C344.409 47.9067 344.153 47.0213 344.153 46.04C344.153 45.016 344.398 44.12 344.889 43.352C345.401 42.584 346.201 41.9867 347.289 41.56C348.377 41.112 349.795 40.888 351.545 40.888H356.121V43.8H352.089C350.915 43.8 350.105 43.992 349.657 44.376C349.23 44.76 349.017 45.24 349.017 45.816C349.017 46.456 349.262 46.968 349.753 47.352C350.265 47.7147 350.958 47.896 351.833 47.896C352.665 47.896 353.411 47.704 354.073 47.32C354.734 46.9147 355.214 46.328 355.513 45.56L356.281 47.864C355.918 48.9733 355.257 49.816 354.297 50.392C353.337 50.968 352.099 51.256 350.585 51.256ZM365.023 51V33.784H369.791V38.648L369.119 37.24C369.631 36.024 370.452 35.1067 371.583 34.488C372.713 33.848 374.089 33.528 375.711 33.528V38.136C375.497 38.1147 375.305 38.104 375.135 38.104C374.964 38.0827 374.783 38.072 374.591 38.072C373.225 38.072 372.116 38.4667 371.263 39.256C370.431 40.024 370.015 41.2293 370.015 42.872V51H365.023ZM386.313 51.256C384.286 51.256 382.707 50.744 381.577 49.72C380.446 48.6747 379.881 47.128 379.881 45.08V29.976H384.873V45.016C384.873 45.7413 385.065 46.3067 385.449 46.712C385.833 47.096 386.355 47.288 387.017 47.288C387.806 47.288 388.478 47.0747 389.033 46.648L390.377 50.168C389.865 50.5307 389.246 50.808 388.521 51C387.817 51.1707 387.081 51.256 386.313 51.256ZM377.225 38.008V34.168H389.161V38.008H377.225Z" fill="black"/>
<path d="M284.005 51.384C282.234 51.384 280.591 51.096 279.077 50.52C277.583 49.944 276.282 49.1333 275.173 48.088C274.085 47.0427 273.231 45.816 272.613 44.408C272.015 43 271.717 41.464 271.717 39.8C271.717 38.136 272.015 36.6 272.613 35.192C273.231 33.784 274.095 32.5573 275.205 31.512C276.314 30.4667 277.615 29.656 279.109 29.08C280.602 28.504 282.223 28.216 283.973 28.216C285.743 28.216 287.365 28.504 288.837 29.08C290.33 29.656 291.621 30.4667 292.709 31.512C293.818 32.5573 294.682 33.784 295.301 35.192C295.919 36.5787 296.229 38.1147 296.229 39.8C296.229 41.464 295.919 43.0107 295.301 44.44C294.682 45.848 293.818 47.0747 292.709 48.12C291.621 49.144 290.33 49.944 288.837 50.52C287.365 51.096 285.754 51.384 284.005 51.384ZM283.973 46.968C284.975 46.968 285.893 46.7973 286.725 46.456C287.578 46.1147 288.325 45.624 288.965 44.984C289.605 44.344 290.095 43.5867 290.437 42.712C290.799 41.8373 290.981 40.8667 290.981 39.8C290.981 38.7333 290.799 37.7627 290.437 36.888C290.095 36.0133 289.605 35.256 288.965 34.616C288.346 33.976 287.61 33.4853 286.757 33.144C285.903 32.8027 284.975 32.632 283.973 32.632C282.97 32.632 282.042 32.8027 281.189 33.144C280.357 33.4853 279.621 33.976 278.981 34.616C278.341 35.256 277.839 36.0133 277.477 36.888C277.135 37.7627 276.965 38.7333 276.965 39.8C276.965 40.8453 277.135 41.816 277.477 42.712C277.839 43.5867 278.33 44.344 278.949 44.984C279.589 45.624 280.335 46.1147 281.189 46.456C282.042 46.7973 282.97 46.968 283.973 46.968ZM310.237 33.528C311.602 33.528 312.818 33.8053 313.885 34.36C314.973 34.8933 315.826 35.7253 316.445 36.856C317.063 37.9653 317.373 39.3947 317.373 41.144V51H312.381V41.912C312.381 40.5253 312.071 39.5013 311.453 38.84C310.855 38.1787 310.002 37.848 308.893 37.848C308.103 37.848 307.389 38.0187 306.749 38.36C306.13 38.68 305.639 39.1813 305.277 39.864C304.935 40.5467 304.765 41.4213 304.765 42.488V51H299.773V33.784H304.541V38.552L303.645 37.112C304.263 35.96 305.149 35.0747 306.301 34.456C307.453 33.8373 308.765 33.528 310.237 33.528Z" fill="#DC7E12"/>
<path d="M75.1201 79.0001C104.324 79.0001 127.998 78.3834 127.998 77.6226C127.998 76.8618 104.324 76.2451 75.1201 76.2451C45.9165 76.2451 22.2422 76.8618 22.2422 77.6226C22.2422 78.3834 45.9165 79.0001 75.1201 79.0001Z" fill="url(#paint0_linear_566_4621)"/>
<path fill-rule="evenodd" clip-rule="evenodd" d="M44.0913 62.1206C46.2282 62.1206 47.9508 63.8479 47.9508 65.9907C47.9508 68.1335 46.2282 69.8827 44.0913 69.8827C41.9544 69.8827 40.2099 68.1335 40.2099 65.9907C40.2099 63.8479 41.9544 62.1206 44.0913 62.1206ZM83.2319 10.5624C99.1934 10.1907 112.298 23.1568 111.644 39.1184C111.361 45.9185 108.722 52.8716 104.318 57.2009C98.4738 62.9952 91.6706 66.4717 83.2319 66.1875C68.884 65.6846 56.7384 53.6806 56.5858 39.1184C56.4549 24.2282 68.0554 10.8904 83.2319 10.5624ZM51.1998 57.0697H44.0695C41.4528 57.0697 39.2287 57.9443 37.3971 59.8466C34.5406 62.7765 33.9082 68.702 37.0482 71.9599C43.3717 78.4757 53.9037 73.7966 53.0097 64.8318C52.8352 63.2357 52.53 62.536 53.9909 62.0112C54.4052 61.9894 66.2019 75.9612 83.2319 76.814C104.121 77.8416 121.522 59.781 121.936 39.184C122.351 17.2751 105.321 -0.064038 83.1665 0.744974C65.8966 1.37906 51.7014 12.6834 47.602 29.6289C46.817 32.9087 46.4899 36.0354 46.5771 39.0528C46.7297 45.2188 48.496 51.013 51.1998 57.0697Z" fill="#121A1B"/>
<path fill-rule="evenodd" clip-rule="evenodd" d="M46.6879 51.9746L45.0743 45.8305H38.4019C36.265 45.8305 35.5672 45.6993 34.6514 42.6382C34.128 40.8671 31.1843 32.6458 31.2497 31.7056L43.5915 31.6181C44.1585 29.694 44.7036 27.3107 45.2051 25.2991L29.0692 25.2335C28.6113 24.3589 26.736 18.7833 26.5834 17.5588L48.4977 17.5151C48.4759 17.2964 52.8588 11.6115 53.5784 11.043L23.9667 11.0211L22.2005 5.75161C20.7395 1.24738 18.2319 -0.0426632 14.4596 0.00106719L6.50066 0.110393C-1.15302 0.088528 -1.21844 5.3799 2.05237 6.77928C4.49457 7.80694 15.0265 6.07959 16.095 7.41337C16.9672 8.52849 27.303 40.1456 28.1534 42.835C28.9602 45.4151 29.6797 47.7328 31.2279 49.3508C32.7979 51.0344 34.7168 52.0184 37.9876 52.1058L46.6879 51.9746Z" fill="#F58634"/>
<path fill-rule="evenodd" clip-rule="evenodd" d="M57.2188 16.5097L62.234 11.6556C73.5073 2.47224 88.3786 1.79442 101.135 8.50703C101.963 8.94434 102.465 9.33791 103.184 9.70962L107.109 12.574C108.701 14.345 108.178 13.4048 108.919 14.2357C109.246 14.5856 109.334 14.8698 109.595 15.1978C110.293 15.9631 109.922 15.3508 110.511 15.8975C112.801 18.0403 115.788 23.9439 116.922 26.5677C119.037 31.4436 118.775 35.8823 119.408 37.8501C119.713 37.3035 119.277 33.2147 119.211 32.7118C119.102 31.6841 118.971 31.1812 118.797 30.2848C118.514 28.7323 118.928 28.9729 118.906 27.5953L118.47 28.5793C118.448 27.1362 118.361 27.333 117.99 26.1741C118.012 26.1741 118.056 26.1741 118.077 26.196C118.077 26.2397 118.143 26.2178 118.165 26.2178C118.623 26.1741 117.968 26.7863 118.47 26.1085C119.037 25.2995 118.099 23.3316 117.685 22.5226C117.271 21.6699 116.965 21.1451 116.638 20.3142L112.801 14.5637C112.212 13.7328 112.713 14.3888 112.016 13.7109C111.579 13.2955 111.623 13.2299 111.296 12.7926C110.62 11.8961 110.162 11.8743 109.508 11.2839C108.549 10.453 109.486 10.6498 106.673 8.74755C101.484 5.24912 99.652 4.15586 92.6306 2.40664C81.2918 -0.413967 67.5109 3.74042 60.0971 13.0113L57.2188 16.5097Z" fill="#55595B"/>
<path d="M84.1279 73.3149C103.143 73.3149 118.559 57.8575 118.559 38.7898C118.559 19.7221 103.143 4.26465 84.1279 4.26465C65.1124 4.26465 49.6973 19.7221 49.6973 38.7898C49.6973 57.8575 65.1124 73.3149 84.1279 73.3149Z" fill="#191E22"/>
<path fill-rule="evenodd" clip-rule="evenodd" d="M84.1278 12.9014C98.3884 12.9014 109.945 24.4899 109.945 38.7898C109.945 53.0896 98.3884 64.6781 84.1278 64.6781C69.8889 64.6781 58.332 53.0896 58.332 38.7898C58.332 24.4899 69.8889 12.9014 84.1278 12.9014ZM84.1278 15.6127C85.9158 15.6127 87.6384 15.8094 89.2956 16.1811C89.4264 16.3998 89.4919 16.6403 89.3828 16.8808L85.6323 26.6108C85.3489 27.3324 84.9564 27.9884 84.1278 27.9884C83.321 27.9884 82.9285 27.3324 82.645 26.6108L78.8945 16.8808C78.7854 16.6403 78.8291 16.3998 78.9817 16.1811C80.6389 15.8094 82.3615 15.6127 84.1278 15.6127ZM96.426 19.1548C99.3697 21.0134 101.877 23.506 103.731 26.4797C103.665 26.7202 103.535 26.917 103.295 27.0263L93.7875 31.2463C93.0897 31.5524 92.3266 31.7273 91.7378 31.1588C91.1709 30.5684 91.3453 29.825 91.6724 29.1253L95.8808 19.5703C95.9899 19.3297 96.1861 19.1985 96.426 19.1548ZM106.674 33.6077C107.045 35.2695 107.263 36.9968 107.263 38.7898C107.263 40.6264 107.045 42.3975 106.631 44.103L106.674 43.9718C106.456 44.103 106.238 44.1467 105.977 44.0593L96.2733 40.2766C95.5756 40.0142 94.8996 39.6206 94.8996 38.7898C94.8996 37.9589 95.5537 37.5653 96.2733 37.2811L105.977 33.5202C106.238 33.4328 106.456 33.4765 106.674 33.6077ZM103.731 51.0999C101.877 54.0517 99.3697 56.5662 96.426 58.4247C96.1861 58.381 95.9899 58.2498 95.8808 58.0093L91.6724 48.4542C91.3671 47.7545 91.1709 46.9892 91.7378 46.4207C92.3266 45.8303 93.0897 46.0271 93.7875 46.3332L103.295 50.5532C103.535 50.6626 103.665 50.8593 103.731 51.0999ZM89.4483 61.3546C87.7474 61.7482 85.9594 61.9669 84.1278 61.9669C82.2961 61.9669 80.5081 61.7482 78.8072 61.3546L78.9817 61.3765C78.8291 61.1797 78.7854 60.9392 78.8945 60.6987L82.645 50.9687C82.9285 50.2471 83.321 49.5693 84.1278 49.5693C84.9564 49.5693 85.3489 50.2471 85.6323 50.9687L89.3828 60.6987C89.4919 60.9392 89.4264 61.1797 89.2956 61.3765L89.4483 61.3546ZM71.8513 58.4247C68.9076 56.5662 66.4 54.0517 64.5466 51.0999C64.612 50.8593 64.7428 50.6626 64.9827 50.5532L74.4898 46.3332C75.1876 46.0271 75.9507 45.8303 76.5177 46.4207C77.1064 46.9892 76.9102 47.7545 76.6049 48.4542L72.3965 58.0093C72.2875 58.2498 72.0912 58.381 71.8513 58.4247ZM61.6028 43.9499C61.2103 42.2882 61.0141 40.5608 61.0141 38.7898C61.0141 36.9312 61.2321 35.1383 61.6464 33.4328L61.6028 33.6077C61.7991 33.4765 62.0389 33.4328 62.2788 33.5202L72.004 37.2811C72.7018 37.5653 73.3777 37.9589 73.3777 38.7898C73.3777 39.6206 72.7018 40.0142 72.004 40.2766L62.2788 44.0593C62.0389 44.1467 61.7991 44.103 61.6028 43.9499ZM64.5466 26.4797C66.4 23.506 68.9076 21.0134 71.8513 19.1548C72.0912 19.1985 72.2875 19.3297 72.3965 19.5703L76.6049 29.1253C76.9102 29.825 77.1064 30.5684 76.5177 31.1588C75.9507 31.7273 75.1876 31.5524 74.4898 31.2463L64.9827 27.0263C64.7428 26.917 64.612 26.7202 64.5466 26.4797Z" fill="#071313"/>
<path fill-rule="evenodd" clip-rule="evenodd" d="M84.1277 9.31543C100.373 9.31543 113.521 22.5001 113.521 38.7897C113.521 55.0574 100.373 68.264 84.1277 68.264C67.9045 68.264 54.7559 55.0574 54.7559 38.7897C54.7559 22.5001 67.9045 9.31543 84.1277 9.31543ZM84.1277 12.8576C98.4102 12.8576 109.989 24.468 109.989 38.7897C109.989 53.1114 98.4102 64.7 84.1277 64.7C69.867 64.7 58.2883 53.1114 58.2883 38.7897C58.2883 24.468 69.867 12.8576 84.1277 12.8576Z" fill="#2B383E"/>
<path fill-rule="evenodd" clip-rule="evenodd" d="M84.1274 11.0645C99.3911 11.0645 111.777 23.4839 111.777 38.7895C111.777 54.0951 99.3911 66.4927 84.1274 66.4927C68.8636 66.4927 56.5 54.0951 56.5 38.7895C56.5 23.4839 68.8636 11.0645 84.1274 11.0645ZM84.1274 12.9011C98.3881 12.9011 109.945 24.4897 109.945 38.7895C109.945 53.0894 98.3881 64.6779 84.1274 64.6779C69.8885 64.6779 58.3316 53.0894 58.3316 38.7895C58.3316 24.4897 69.8885 12.9011 84.1274 12.9011ZM84.1274 15.6124C85.9154 15.6124 87.638 15.8092 89.2952 16.1809C89.4261 16.3996 89.4915 16.6401 89.3825 16.8806L85.6319 26.6106C85.3485 27.3322 84.956 27.9881 84.1274 27.9881C83.3206 27.9881 82.9281 27.3322 82.6446 26.6106L78.8941 16.8806C78.7851 16.6401 78.8287 16.3996 78.9813 16.1809C80.6385 15.8092 82.3611 15.6124 84.1274 15.6124ZM96.4256 19.1546C99.3693 21.0131 101.877 23.5057 103.73 26.4794C103.665 26.7199 103.534 26.9167 103.294 27.026L93.7871 31.246C93.0894 31.5521 92.3262 31.7271 91.7374 31.1586C91.1705 30.5682 91.3449 29.8248 91.672 29.1251L95.8805 19.57C95.9895 19.3295 96.1857 19.1983 96.4256 19.1546ZM106.674 33.6075C107.045 35.2692 107.263 36.9966 107.263 38.7895C107.263 40.6262 107.045 42.3973 106.63 44.1028L106.674 43.9716C106.456 44.1028 106.238 44.1465 105.976 44.059L96.2729 40.2763C95.5752 40.014 94.8992 39.6204 94.8992 38.7895C94.8992 37.9586 95.5534 37.5651 96.2729 37.2808L105.976 33.52C106.238 33.4325 106.456 33.4763 106.674 33.6075ZM103.73 51.0996C101.877 54.0514 99.3693 56.5659 96.4256 58.4245C96.1857 58.3807 95.9895 58.2495 95.8805 58.009L91.672 48.4539C91.3667 47.7542 91.1705 46.989 91.7374 46.4205C92.3262 45.8301 93.0894 46.0269 93.7871 46.333L103.294 50.553C103.534 50.6623 103.665 50.8591 103.73 51.0996ZM89.4479 61.3544C87.7471 61.748 85.959 61.9666 84.1274 61.9666C82.2957 61.9666 80.5077 61.748 78.8069 61.3544L78.9813 61.3763C78.8287 61.1795 78.7851 60.939 78.8941 60.6984L82.6446 50.9684C82.9281 50.2469 83.3206 49.5691 84.1274 49.5691C84.956 49.5691 85.3485 50.2469 85.6319 50.9684L89.3825 60.6984C89.4915 60.939 89.4261 61.1795 89.2952 61.3763L89.4479 61.3544ZM71.851 58.4245C68.9072 56.5659 66.3996 54.0514 64.5462 51.0996C64.6116 50.8591 64.7424 50.6623 64.9823 50.553L74.4894 46.333C75.1872 46.0269 75.9504 45.8301 76.5173 46.4205C77.1061 46.989 76.9098 47.7542 76.6045 48.4539L72.3961 58.009C72.2871 58.2495 72.0908 58.3807 71.851 58.4245ZM61.6025 43.9497C61.21 42.2879 61.0137 40.5606 61.0137 38.7895C61.0137 36.931 61.2318 35.138 61.6461 33.4325L61.6025 33.6075C61.7987 33.4763 62.0386 33.4325 62.2784 33.52L72.0036 37.2808C72.7014 37.5651 73.3773 37.9586 73.3773 38.7895C73.3773 39.6204 72.7014 40.014 72.0036 40.2763L62.2784 44.059C62.0386 44.1465 61.7987 44.1028 61.6025 43.9497ZM64.5462 26.4794C66.3996 23.5057 68.9072 21.0131 71.851 19.1546C72.0908 19.1983 72.2871 19.3295 72.3961 19.57L76.6045 29.1251C76.9098 29.8248 77.1061 30.5682 76.5173 31.1586C75.9504 31.7271 75.1872 31.5521 74.4894 31.246L64.9823 27.026C64.7424 26.9167 64.6116 26.7199 64.5462 26.4794Z" fill="#FEFEFE"/>
<path d="M84.1279 46.8359C88.5596 46.8359 92.1522 43.2335 92.1522 38.7896C92.1522 34.3457 88.5596 30.7432 84.1279 30.7432C79.6961 30.7432 76.1035 34.3457 76.1035 38.7896C76.1035 43.2335 79.6961 46.8359 84.1279 46.8359Z" fill="#4B4B4D"/>
<path d="M84.1285 44.0808C87.0428 44.0808 89.4053 41.7118 89.4053 38.7894C89.4053 35.8671 87.0428 33.498 84.1285 33.498C81.2141 33.498 78.8516 35.8671 78.8516 38.7894C78.8516 41.7118 81.2141 44.0808 84.1285 44.0808Z" fill="#434E52"/>
<path d="M84.1277 42.9658C86.4279 42.9658 88.2925 41.096 88.2925 38.7895C88.2925 36.4831 86.4279 34.6133 84.1277 34.6133C81.8275 34.6133 79.9629 36.4831 79.9629 38.7895C79.9629 41.096 81.8275 42.9658 84.1277 42.9658Z" fill="#1C2125"/>
<path d="M84.1278 40.9766C85.3321 40.9766 86.3083 39.9976 86.3083 38.79C86.3083 37.5825 85.3321 36.6035 84.1278 36.6035C82.9235 36.6035 81.9473 37.5825 81.9473 38.79C81.9473 39.9976 82.9235 40.9766 84.1278 40.9766Z" fill="#B4B3B8"/>
<defs>
<linearGradient id="paint0_linear_566_4621" x1="22.2389" y1="77.6123" x2="127.98" y2="77.6123" gradientUnits="userSpaceOnUse">
<stop stop-color="#EEEEEE"/>
<stop offset="0.470588" stop-color="#97999B"/>
<stop offset="1" stop-color="#FEFEFE"/>
</linearGradient>
</defs>
</svg>
